#!OML:ASF Y:\EmotionMaleHayes\Project 1\Capture day 1\Session 1\Male1.ASF
:FULLY-SPECIFIED
:DEGREES
287
root -30.7197 16.9909 1.05187 198.33 82.8466 197.441
lowerback 9.4755 1.88029 2.58332
upperback 2.49738 2.86337 1.01585
thorax -2.64029 1.45145 -0.730648
lowerneck -21.913 5.20737 7.43098
upperneck 31.0141 8.08167 -7.10851
head 15.1208 3.55887 -2.59157
rclavicle 5.46658e-015 3.02153e-014
rhumerus -32.1202 15.2552 -90.5959
rradius 31.4596
rwrist 2.13518
rhand -8.94822 -33.6327
rfingers 7.12502
rthumb 16.9963 -62.9091
lclavicle 5.46658e-015 3.02153e-014
lhumerus -30.167 -18.2096 94.2492
lradius 32.7494
lwrist -2.22006
lhand -17.3871 -27.4273
lfingers 7.12502
lthumb 8.86183 2.36658
rfemur 5.50642 -10.4756 18.4799
rtibia 4.94744
rfoot -17.0956 -9.44233
rtoes 9.13644
lfemur -5.94091 4.15369 -13.8662
ltibia 24.0768
lfoot -16.8375 8.48743
ltoes -13.5613
288
root -30.7512 16.9843 1.04241 200.128 81.8108 199.25
lowerback 9.88345 1.82891 3.34015
upperback 2.53384 2.90532 1.31218
thorax -2.80427 1.47139 -0.867839
lowerneck -21.677 5.20931 7.26268
upperneck 31.0501 8.22685 -7.18754
head 15.0948 3.60329 -2.56908
rclavicle -4.96962e-016 -1.19271e-015
rhumerus -32.0644 15.5516 -90.3185
rradius 31.4227
rwrist 1.54359
rhand -8.81064 -34.1695
rfingers 7.12502
rthumb 17.1287 -63.4345
lclavicle -4.96962e-016 -1.19271e-015
lhumerus -30.0827 -17.8543 94.4244
lradius 32.8603
lwrist -1.67786
lhand -16.1223 -26.9707
lfingers 7.12502
lthumb 10.0822 2.76773
rfemur 5.26552 -10.6485 19.16
rtibia 5.09338
rfoot -17.2405 -10.0696
rtoes 9.4465
lfemur -6.86583 4.63717 -13.134
ltibia 25.1999
lfoot -16.5572 7.32016
ltoes -12.0487
289
root -30.7717 16.977 1.03626 200.093 80.8979 199.26
lowerback 10.1075 1.82406 3.85605
upperback 2.70501 2.97484 1.47594
thorax -2.72986 1.51246 -0.999617
lowerneck -21.739 5.24542 7.26346
upperneck 31.1782 8.34741 -7.29199
head 15.1868 3.64306 -2.58881
rclavicle 6.21202e-015 -4.77083e-015
rhumerus -31.6758 15.4897 -89.9898
rradius 31.1928
rwrist 1.29447
rhand -8.15741 -33.9812
rfingers 7.12502
rthumb 17.7574 -63.1904
lclavicle 6.21202e-015 -4.77083e-015
lhumerus -29.8451 -17.45 94.3788
lradius 32.9675
lwrist -1.22711
lhand -16.2215 -27.1498
lfingers 7.12502
lthumb 9.98651 2.59326
rfemur 5.19596 -10.6934 19.5446
rtibia 5.1722
rfoot -17.3676 -10.8486
rtoes 9.85268
lfemur -7.64432 5.18813 -12.6591
ltibia 26.2577
lfoot -16.2721 6.07365
ltoes -9.98373
290
root -30.7908 16.9682 1.02398 199.41 80.0169 198.49
lowerback 10.1956 1.82976 4.29079
upperback 2.84406 3.04041 1.58134
thorax -2.6139 1.55207 -1.14087
lowerneck -21.9697 5.29169 7.39283
upperneck 31.4702 8.49506 -7.52575
head 15.4127 3.68864 -2.68025
rclavicle -1.39149e-014 2.78299e-015
rhumerus -31.4239 15.5031 -89.6505
rradius 31.1905
rwrist 1.28151
rhand -8.72934 -33.1552
rfingers 7.12502
rthumb 17.207 -62.4133
lclavicle -1.39149e-014 2.78299e-015
lhumerus -29.5298 -17.1796 94.3472
lradius 32.8811
lwrist -0.725232
lhand -16.9954 -27.5352
lfingers 7.12502
lthumb 9.23979 2.24234
rfemur 4.97924 -11.2346 19.6039
rtibia 5.43712
rfoot -17.3702 -11.2065
rtoes 9.87438
lfemur -8.57286 5.67026 -12.4375
ltibia 27.3056
lfoot -15.64 5.08744
ltoes -9.86857
291
root -30.8131 16.962 1.00543 197.825 79.1702 196.739
lowerback 9.77504 1.82208 4.2913
upperback 3.26408 3.01732 1.8454
thorax -1.96202 1.56728 -0.837232
lowerneck -22.0616 5.38488 7.35516
upperneck 31.3225 8.78464 -7.93199
head 15.4208 3.74816 -2.78154
rclavicle 7.65321e-015 2.06736e-014
rhumerus -30.6752 16.0018 -88.9838
rradius 31.0621
rwrist 1.35614
rhand -9.71047 -32.7902
rfingers 7.12502
rthumb 16.2624 -62.1282
lclavicle 7.65321e-015 2.06736e-014
lhumerus -28.6549 -16.621 94.4061
lradius 32.591
lwrist -0.160329
lhand -17.3508 -27.8001
lfingers 7.12502
lthumb 8.89679 1.99238
rfemur 4.62815 -11.9164 19.3508
rtibia 5.8466
rfoot -17.521 -11.4397
rtoes 9.63556
lfemur -9.66587 6.1616 -12.5333
ltibia 28.5242
lfoot -15.0809 4.06614
ltoes -9.8755
292
root -30.8117 16.961 1.01707 197.067 77.6166 196.265
lowerback 10.4358 1.59425 4.9973
upperback 3.19658 2.83552 1.78633
thorax -2.36507 1.47122 -1.29989
lowerneck -21.7992 5.40419 7.60197
upperneck 31.4816 8.71845 -7.7688
head 15.4309 3.78787 -2.77424
rclavicle 1.49089e-014 2.34566e-014
rhumerus -30.7029 15.4802 -89.1665
rradius 30.8238
rwrist 2.43052
rhand -9.81974 -33.2339
rfingers 7.12502
rthumb 16.1572 -62.5805
lclavicle 1.49089e-014 2.34566e-014
lhumerus -29.1147 -16.9631 94.1513
lradius 32.8589
lwrist 0.183895
lhand -18.1528 -27.4843
lfingers 7.12502
lthumb 8.12288 2.33956
rfemur 5.32549 -11.3215 20.031
rtibia 5.22063
rfoot -18.0373 -13.2629
rtoes 10.6887
lfemur -10.3392 6.62937 -11.8077
ltibia 29.7848
lfoot -14.3933 2.35887
ltoes -9.33845
293
root -30.8507 16.9484 1.01321 201.212 77.0863 200.328
lowerback 10.6684 1.8216 6.10119
upperback 3.266 3.29524 2.12977
thorax -2.35071 1.70811 -1.61909
lowerneck -21.9211 5.33602 7.59851
upperneck 31.6159 8.69026 -7.89552
head 15.5273 3.76006 -2.8336
rclavicle -2.97183e-014 1.66979e-014
rhumerus -30.2556 15.1766 -88.6751
rradius 30.5772
rwrist 3.01198
rhand -8.80074 -33.137
rfingers 7.12502
rthumb 17.1382 -62.4011
lclavicle -2.97183e-014 1.66979e-014
lhumerus -29.0188 -16.9027 94.1992
lradius 33.1111
lwrist 0.528463
lhand -18.4427 -26.9695
lfingers 7.12502
lthumb 7.84306 2.865
rfemur 4.5618 -10.815 21.4697
rtibia 5.68348
rfoot -18.1994 -13.8831
rtoes 10.9078
lfemur -11.4754 7.88426 -10.3598
ltibia 31.0222
lfoot -13.4615 1.25651
ltoes -8.89768
294
root -30.8632 16.9609 1.01107 199.77 75.8498 199.039
lowerback 11.3193 1.6903 6.60618
upperback 3.18562 3.2441 2.13581
thorax -2.76725 1.67116 -1.91891
lowerneck -21.8736 5.26024 7.69819
upperneck 31.9753 8.64051 -7.93549
head 15.6898 3.76007 -2.88503
rclavicle -1.3418e-014 4.37326e-015
rhumerus -30.2488 15.1144 -88.6867
rradius 30.4153
rwrist 2.96483
rhand -8.67931 -33.2269
rfingers 7.12502
rthumb 17.2551 -62.4809
lclavicle -1.3418e-014 4.37326e-015
lhumerus -29.3421 -16.9048 94.1739
lradius 33.0843
lwrist 0.460429
lhand -19.0555 -26.918
lfingers 7.12502
lthumb 7.25154 2.9377
rfemur 4.91858 -11.4106 21.496
rtibia 5.44258
rfoot -18.2632 -14.4535
rtoes 10.6984
lfemur -12.133 8.27491 -10.0592
ltibia 31.9659
lfoot -12.3946 -0.199186
ltoes -8.59656
295
root -30.8863 16.9606 0.994757 197.186 75.0284 195.778
lowerback 10.8682 1.74187 6.38517
upperback 3.19977 3.23885 2.03076
thorax -2.51134 1.67503 -1.88383
lowerneck -22.0707 5.25945 7.33582
upperneck 32.097 8.66588 -7.60305
head 15.7529 3.76762 -2.6727
rclavicle 7.35503e-015 2.54444e-014
rhumerus -29.8093 15.2549 -88.426
rradius 30.2626
rwrist 2.97291
rhand -9.11662 -33.0599
rfingers 7.12502
rthumb 16.8342 -62.3502
lclavicle 7.35503e-015 2.54444e-014
lhumerus -29.0615 -16.5135 94.0423
lradius 33.067
lwrist 0.797959
lhand -18.7945 -26.746
lfingers 7.12502
lthumb 7.50352 3.10096
rfemur 4.13365 -12.4145 20.68
rtibia 5.79695
rfoot -18.2955 -14.4334
rtoes 10.7717
lfemur -13.7246 8.89326 -10.8244
ltibia 33.0909
lfoot -11.4549 -1.5519
ltoes -6.95778
296
root -30.8981 16.9695 0.982388 194.111 74.0785 192.471
lowerback 10.8733 1.7313 6.02014
upperback 3.25773 3.17916 1.92169
thorax -2.47248 1.64814 -1.78588
lowerneck -22.1387 5.23209 7.28715
upperneck 32.3023 8.70208 -7.6298
head 15.8704 3.77866 -2.66974
rclavicle -1.72943e-014 -3.97569e-014
rhumerus -29.5648 15.0814 -88.1033
rradius 30.1093
rwrist 3.50901
rhand -9.10776 -32.6733
rfingers 7.12502
rthumb 16.8427 -61.9629
lclavicle -1.72943e-014 -3.97569e-014
lhumerus -28.7747 -16.1151 93.9692
lradius 32.6744
lwrist 0.926982
lhand -19.4844 -27.0646
lfingers 7.12502
lthumb 6.83756 2.80499
rfemur 4.09924 -12.9292 19.7971
rtibia 5.83575
rfoot -18.5525 -14.8074
rtoes 12.4024
lfemur -14.6037 9.47356 -11.5424
ltibia 33.9232
lfoot -10.3805 -3.09672
ltoes -5.52803
